<svg xmlns="http://www.w3.org/2000/svg" viewBox="0 0 4135.29 2088.4"><polygon points="788.74 696.13 4116.13 1069.33 4135.29 1101.68 4135.29 1136.81 4135.29 1165.55 4106.55 1165.55 788.74 814.29 769.58 763.19 769.58 734.45 788.74 696.13" style="fill:#858585"/><polygon points="657.82 376.81 814.29 395.97 619.5 2088.4 450.25 2088.4 657.82 376.81" style="fill:#a58432"/><polygon points="852.61 475.8 814.29 395.97 619.5 2088.4 657.82 1960.67 852.61 475.8" style="fill:#775e26"/><polygon points="210.76 376.81 306.56 1733.95 351.26 1759.49 373.61 1730.76 309.75 395.97 210.76 376.81" style="fill:#a58432"/><polygon points="418.32 1666.89 373.61 1730.76 309.75 395.97 373.61 360.84 418.32 1666.89" style="fill:#775e26"/><polygon points="210.76 376.81 292.19 332.1 373.61 360.84 309.75 395.97 210.76 376.81" style="fill:#775e26"/><polygon points="450.25 472.61 312.51 453.62 344.72 1126.93 469.41 1146.39 450.25 472.61" style="fill:#a58432"/><polygon points="576.76 332.1 450.25 472.61 469.41 1146.39 576.76 951.6 576.76 332.1" style="fill:#775e26"/><polygon points="530.08 696.13 617.81 706.67 610.13 769.99 530.08 756.81 513.51 739.24 513.51 712.1 530.08 696.13" style="fill:#b05900"/><line x1="390.96" y1="290.59" x2="245.88" y2="453.62" style="fill:#b05900"/><path d="M-1363.34-389.13c9.58-3.19,158.44,41.51,158.44,41.51l-126.51,140.51-76.64-19v-92.78L-1442.42-331Z" transform="translate(1781.66 679.72)" style="fill:#805e26"/><polyline points="223.4 555.87 156.47 555.87 114.96 510.92 51.09 494.96 51.09 472.61 0 472.61 0 648.24 47.9 648.24 54.29 619.5 111.7 609.92 143.7 590.76 169.24 584.37 223.4 584.37" style="fill:#8e8c8a"/><polyline points="458 546.05 450.25 121.34 576.76 19.16 576.76 609.92 450.25 696.13" style="fill:#dddad7"/><polygon points="590.76 57.48 692.94 0 692.94 364.03 657.82 376.81 617.81 706.67 576.76 696.13 590.76 57.48" style="fill:#dddad7"/><circle cx="473.29" cy="264.36" r="15.29" style="fill:#dddad7"/><circle cx="539.2" cy="200.26" r="26.46" style="fill:#333"/><circle cx="488.57" cy="226.72" r="26.46" style="fill:#333"/><path d="M2031.11-1062.91" transform="translate(1781.66 679.72)" style="fill:#333"/></svg>