<svg xmlns="http://www.w3.org/2000/svg" viewBox="0 0 225 205.93"><polyline points="20.84 0 207.5 8.51 206.32 129.36 210.17 130.84 210.17 166.81 214.62 166.81 214.62 182.52 225 188.44 197.13 205.93 184.99 205.93 186.47 201.78 195.38 185.48 197.65 163.55 30.91 147.99 31.5 163.55 44.25 170.37 43.65 173.93 11.65 188.15 0 188.74 2.17 183.11 12.84 168.3 12.84 155.28 15.8 151.58 16.99 118.42 20.25 113.02" style="fill:#27447a"/><polygon points="25.91 6.55 25.91 145.45 197.35 162.99 198.48 13.62 25.91 6.55" style="fill:#204296"/><circle cx="109.94" cy="142.11" r="8.91" style="fill:#ee2f47"/><circle cx="37.96" cy="135.89" r="8.91" style="fill:#f6e14e"/><circle cx="61.37" cy="42.69" r="8.91" style="fill:#fff"/><circle cx="37.96" cy="41.11" r="8.91" style="fill:#fff"/><circle cx="85.39" cy="43.97" r="8.91" style="fill:#fff"/><circle cx="134.13" cy="144.8" r="8.91" style="fill:#ee2f47"/><circle cx="61.37" cy="138.52" r="8.91" style="fill:#f6e14e"/><circle cx="85.66" cy="140.04" r="8.91" style="fill:#f6e14e"/><circle cx="184.68" cy="148.47" r="8.91" style="fill:#f6e14e"/><circle cx="184.68" cy="124.29" r="8.91" style="fill:#f6e14e"/><circle cx="135.49" cy="119.89" r="8.91" style="fill:#f6e14e"/><circle cx="109.94" cy="117.87" r="8.91" style="fill:#f6e14e"/><circle cx="37.96" cy="112.19" r="8.91" style="fill:#f6e14e"/><circle cx="37.96" cy="88.5" r="8.91" style="fill:#f6e14e"/><circle cx="61.37" cy="90.6" r="8.91" style="fill:#f6e14e"/><circle cx="160.38" cy="97.41" r="8.91" style="fill:#f6e14e"/><circle cx="85.42" cy="69.05" r="8.91" style="fill:#f6e14e"/><circle cx="109.42" cy="70.24" r="8.91" style="fill:#f6e14e"/><circle cx="134.9" cy="72.02" r="8.91" style="fill:#f6e14e"/><circle cx="109.94" cy="45.22" r="8.91" style="fill:#f6e14e"/><circle cx="159.49" cy="145.81" r="8.91" style="fill:#ee2f47"/><circle cx="158.9" cy="121.37" r="8.91" style="fill:#ee2f47"/><circle cx="183.79" cy="100.22" r="8.91" style="fill:#ee2f47"/><circle cx="184.68" cy="74.26" r="8.91" style="fill:#ee2f47"/><circle cx="158.9" cy="74.24" r="8.91" style="fill:#ee2f47"/><circle cx="134.61" cy="95.89" r="8.91" style="fill:#ee2f47"/><circle cx="109.94" cy="94.05" r="8.91" style="fill:#ee2f47"/><circle cx="85.12" cy="93.68" r="8.91" style="fill:#ee2f47"/><circle cx="84.53" cy="115.04" r="8.91" style="fill:#ee2f47"/><circle cx="62.01" cy="114.68" r="8.91" style="fill:#ee2f47"/><circle cx="61.37" cy="66.65" r="8.91" style="fill:#ee2f47"/><circle cx="37.96" cy="65.35" r="8.91" style="fill:#ee2f47"/><circle cx="135.2" cy="48.33" r="8.91" style="fill:#fff"/><circle cx="160.98" cy="47.3" r="8.91" style="fill:#fff"/><circle cx="186.16" cy="50.02" r="8.91" style="fill:#fff"/><circle cx="37.96" cy="16.87" r="8.91" style="fill:#fff"/><circle cx="62.01" cy="18.73" r="8.91" style="fill:#fff"/><circle cx="84.53" cy="18.89" r="8.91" style="fill:#fff"/><circle cx="109.42" cy="21.52" r="8.91" style="fill:#fff"/><circle cx="134.61" cy="23.29" r="8.91" style="fill:#fff"/><circle cx="160.09" cy="24.63" r="8.91" style="fill:#fff"/><circle cx="184.68" cy="24.63" r="8.91" style="fill:#fff"/></svg>