<?xml version="1.0" encoding="utf-8"?>
<!-- Generator: Adobe Illustrator 25.4.1, SVG Export Plug-In . SVG Version: 6.00 Build 0)  -->
<svg version="1.1" id="Layer_1" xmlns="http://www.w3.org/2000/svg" xmlns:xlink="http://www.w3.org/1999/xlink" x="0px" y="0px"
	 viewBox="0 0 440.6 410.2" style="enable-background:new 0 0 440.6 410.2;" xml:space="preserve">
<style type="text/css">
	.st0{fill:#231F20;}
	.st1{fill:#C18E37;stroke:#C18E37;stroke-miterlimit:10;}
	.st2{fill:#C18E37;}
	.st3{fill:#231F20;stroke:#231F20;stroke-miterlimit:10;}
	.st4{fill:#64BC46;stroke:#307E3E;stroke-miterlimit:10;}
	.st5{fill:#2F7D3D;}
	.st6{fill:#6DBE45;}
</style>
<polygon class="st0" points="248.1,2.5 248.1,407.8 220.9,363.4 179.6,333.6 143.6,343.8 143.6,362.9 152.9,376.3 188.1,407.8 
	143.6,394.9 98.3,374.5 82.7,346 73.8,362.5 68.9,377.6 83.6,398 56.1,386 42.7,365.2 47.6,340.3 2.7,287.8 0.5,259.4 16.5,227.4 
	19.6,254.5 36.1,273.2 46.3,281.6 32.5,259.8 36.5,186.9 61,154.5 68.1,162.9 67.6,192.3 78.3,217.2 84.5,177.2 80.9,173.6 
	84.1,151.8 135.2,87.4 124.3,166.1 142.3,224.3 159.6,234.9 176.5,218.1 185.4,175.8 214.3,126.1 209.8,104.3 224.5,79.8 
	219.6,70.5 "/>
<polygon class="st1" points="77.4,274.5 77.4,310.9 71.2,316.3 97.8,316.3 91.6,310 91.6,274.5 102.3,278.9 106.3,265.6 98.7,269.2 
	71.2,267.4 65.7,273.1 61,278 61,283.8 64.1,286.5 69.4,282.5 66.7,278.5 68.9,274.5 "/>
<polygon class="st1" points="131.2,279.4 131.2,311.4 126.7,316.3 147.6,316.3 142.7,310.9 142.7,297.8 152.9,297.8 152.9,309.6 
	150.7,316.3 171.2,316.3 165.8,311.4 165.8,279.4 168.9,277.2 148.9,277.2 153.8,280.3 153.8,290.9 142.7,290.9 142.7,279.8 
	146.3,277.2 126.7,277.2 "/>
<polygon class="st1" points="199.2,280.7 199.2,310.9 195.2,316.3 216.9,316.3 210.3,310.9 210.3,280.7 216.9,280.7 219,283.7 
	219,291.5 217.1,293.8 216.2,294.6 213.4,294.5 213.2,298.5 216.4,298.5 218.4,304.3 219,309.6 219,315.1 219,316.9 237.1,316.9 
	237.1,313.6 234,313.3 225.1,296.7 228.7,294.6 230.9,292 231.3,284.4 228.5,278.9 224.7,277.2 196.1,277.2 196.1,279.8 "/>
<polygon class="st2" points="247.6,1.6 247.6,408.7 280.5,366 293.8,352.7 309.8,347.4 361.8,351.8 377.4,358.5 393.4,368.7 
	422.7,375.8 428.5,371.8 433,372.3 433,376.3 424.5,382.5 430.3,382.5 440.1,374 440.1,354.9 428.1,347.8 428.1,307.4 432.1,302.9 
	432.1,291.4 425.4,283.4 433.4,277.6 432.5,258.9 424.1,251.4 416.5,200.7 409.8,207.3 404.5,198.5 397.8,201.2 401.4,210.1 
	401.4,239.8 382.7,233.6 383.6,211.4 377.4,207.3 376.5,217.2 369,218.1 368.5,207.3 361.4,207.3 361.4,227.4 353,225.2 
	358.7,220.3 350.3,206.9 343.8,210.5 336.1,210.9 330.7,205.2 329,194.9 333.4,190.5 341,192.7 334.3,174.9 328.1,182.1 
	325.8,175.4 321.8,163.8 321.4,136.7 301.8,118.5 285.4,96.3 275.6,68.3 275.6,24.7 267.6,8.7 264.1,12.3 264.1,47.4 262.3,53.2 
	258.7,48.3 256.1,40.3 256.1,1.6 "/>
<polygon class="st3" points="263,282 263,312.9 259.8,315.2 259.8,316.9 280.2,316.9 279.5,314.3 275.6,312.6 275.6,279.5 
	279.2,278.3 279.2,275.7 259.8,275.7 259.8,279.1 "/>
<path class="st3" d="M305.7,281c0.4,0.9,9.2,32.7,9.2,32.7s-2.2,1-2.2,1.9s0.1,2.2,0.1,2.2h20.6v-3.1l-3-1.5l10.8-21.2l1-8.7
	l-2.1-4.3l4.5-0.7v-1.7h-17.7l0.3,2.4l2.4,1.5l0.9,5.3l-0.9,8.7l-3.4,15.4l-2.4-0.1l-5.9-30.4l5.2-1.5l-0.4-1.3h-19v2.4L305.7,281z"
	/>
<path class="st3" d="M400.5,277.2c-0.9,0.1-13.5-0.9-13.9-0.6s-9.8,4.9-9.8,4.9l-5.6,7l-3.1,8.6v10.4l4,5.2l8.7,5.3h7.1l4.9-3.4
	l6.7-5.8l-2.5-3.1l-2.1,2.5l-4.4,3l-5.2-0.6l-4-3.4l-1.2-3.2l-0.3-5.5h11c0,0,0.3,4.9,0.9,4.9h2.7l-0.8-12.3H391l-0.7,2.1h-9.8
	l0.9-7.1l1.6-3.9l5.9-0.6l3.9,2.4l1,4.9l3,1.5l0.6-9.5l3.1-1.2V277.2z"/>
<path class="st3" d="M689,222.5"/>
<circle class="st4" cx="263.3" cy="125.4" r="4.9"/>
<circle class="st4" cx="263.8" cy="159.7" r="5.3"/>
<circle class="st4" cx="288.5" cy="244" r="4.6"/>
<circle class="st4" cx="342.4" cy="253.2" r="4.6"/>
<circle class="st4" cx="383" cy="261.7" r="3.9"/>
<polygon class="st5" points="247.2,184 247.2,190.2 247.2,257.8 259.8,257.8 270,253.2 278.9,235.5 280.2,205.2 270,187.8 
	263.8,184 "/>
<polyline class="st6" points="248.1,245.3 258.4,245.3 265.1,241.2 271.8,229 271.8,205.2 265,193.8 258.4,190.5 247.2,190.2 "/>
</svg>
