<svg xmlns="http://www.w3.org/2000/svg" viewBox="0 0 571.67 341"><rect x="0.5" y="0.5" width="570.67" height="340" style="fill:#292a66;stroke:#231f20;stroke-miterlimit:10"/><path d="M113.24,418c-5.29.34-7.22,1.68-7.39,5.54-.08,1.94-.25,5.46-.25,13.19v9.07c0,8.57-1,15.12-5.88,20.25-4,4.11-9.66,5.37-15.46,5.37-4.87,0-10.08-1-13.77-3.86-5-3.86-7.48-9.66-7.48-19.49V426.6c0-7.56-.67-8.06-7.39-8.65V415.6H77.71V418c-6.72.42-7.39,1.09-7.39,8.65v21c0,12.27,5.79,19,15.87,19,11.93,0,15.71-7.39,15.71-21.33v-8.57c0-7.73-.25-10.92-.42-13.19-.25-3.78-2.18-5.2-8.4-5.54V415.6h20.16Z" transform="translate(-12.83 -191.94)" style="fill:#fff"/><path d="M176,418c-5.38.59-7.14,1.43-7.39,5.29-.09,2.69-.25,6.22-.25,14V471h-3.2L129.2,427v21c0,7.56.25,11.34.42,13.78.17,4.28,2.27,5.54,8.32,6.05v2.35H117.53v-2.35c5.2-.43,7.22-1.68,7.56-5.8.25-2.69.42-6.47.42-14.11V426.52c0-2.35-.17-3.7-1.68-5.55-1.6-2.1-3.36-2.6-7.48-3V415.6H129l35.62,42.25V437.27c0-7.81-.17-11.42-.42-13.94-.26-3.78-2.19-5-8.91-5.38V415.6H176Z" transform="translate(-12.83 -191.94)" style="fill:#fff"/><path d="M182.71,470.2v-2.35c6.89-.76,7.56-1.1,7.56-8.24V426.27c0-7.23-.67-7.56-7.56-8.32V415.6h22.51V418c-7,.76-7.64,1.09-7.64,8.32v33.34c0,7.23.67,7.48,7.64,8.24v2.35Z" transform="translate(-12.83 -191.94)" style="fill:#fff"/><path d="M265.7,418c-5.63.76-7.06,1.51-10.08,9.07-2.27,5.55-13.86,33.69-18,44.1h-2.77c-5-13.52-12.18-33.18-17-45.61-2.35-6.22-3.78-7.06-8.9-7.56V415.6h21.33V418c-6.21.67-6.55,1.68-5.37,4.79,2.1,6.13,8.23,22.84,13.52,36.79,4.45-10.84,10-24.53,14-35.11,1.84-4.87.84-5.63-6.05-6.47V415.6H265.7Z" transform="translate(-12.83 -191.94)" style="fill:#fff"/><path d="M312.57,456.84c-.51,2.19-2.77,10.84-3.61,13.36H268.13v-2.35c7.81-.59,8.4-1.35,8.4-8.24V426.43c0-7.47-.92-7.89-7.22-8.48V415.6H295c7.9,0,11.17-.09,12.18-.17.09,2.1.42,8.4.76,12.85l-2.52.42a28.35,28.35,0,0,0-2.52-6.38c-1.35-2.77-3.28-3.36-8.32-3.36h-8c-2.6,0-2.77.25-2.77,2.69v18.56h9.32c6.3,0,6.72-1.26,7.73-7h2.61v17.3h-2.61c-1.09-6.05-1.76-6.89-7.81-6.89h-9.24v16.72c0,5.88,1.85,6.38,6.05,6.47h7.81c5.12,0,6-.76,7.81-2.94a36.2,36.2,0,0,0,4.54-7.73Z" transform="translate(-12.83 -191.94)" style="fill:#fff"/><path d="M368.26,470.87c-1.09,0-2-.08-3.11-.17-6.13-.42-9.41-2-13.1-7.22-3.11-4.29-6.13-9.58-8.82-13.86-1.68-2.69-2.77-3.19-7.06-3.19h-2.94v13.18c0,7.14.93,7.56,7.65,8.24v2.35H318.45v-2.35c7-.76,7.56-1.1,7.56-8.24V426.1c0-7.14-.93-7.39-7.56-8.15V415.6h21.42c6.13,0,10.25.75,13.44,2.85,3.44,2.19,5.71,6,5.71,11.09,0,7.23-4.62,11.76-10.84,14.45,1.52,2.6,5.13,8.23,7.65,12a77.86,77.86,0,0,0,6.63,8.65,12.12,12.12,0,0,0,6.14,3.87Zm-31-27.3c4.37,0,7.14-.67,9.24-2.44,3.28-2.43,4.62-5.79,4.62-10.33,0-9-6-12.26-12.43-12.26-2.43,0-3.86.33-4.45.84-.76.59-1,1.43-1,3.61v20.58Z" transform="translate(-12.83 -191.94)" style="fill:#fff"/><path d="M402.11,428.37c-1.43-5.55-3.78-11-11.68-11-6.55,0-8.82,4.79-8.82,9.16,0,5.79,3.7,8.73,10.67,12.35,10.08,5.2,14.45,9.07,14.45,17.05,0,8.82-7.64,15.54-18.48,15.54a35.1,35.1,0,0,1-12.85-2.77,116,116,0,0,1-2.27-12.61l2.6-.67c1.69,5.63,5.38,12.94,14.12,12.94,6,0,9.74-4.2,9.74-9.66,0-6.47-3.44-9.07-10.84-13.11C379.93,440.8,375,436.77,375,429c0-7.47,6.21-14.53,17.3-14.53a53.34,53.34,0,0,1,11.09,1.6c.34,3,.67,6.38,1.34,11.84Z" transform="translate(-12.83 -191.94)" style="fill:#fff"/><path d="M414,470.2v-2.35c6.89-.76,7.56-1.1,7.56-8.24V426.27c0-7.23-.67-7.56-7.56-8.32V415.6h22.52V418c-7,.76-7.65,1.09-7.65,8.32v33.34c0,7.23.67,7.48,7.65,8.24v2.35Z" transform="translate(-12.83 -191.94)" style="fill:#fff"/><path d="M488.8,428.79a32.48,32.48,0,0,0-2.69-7c-1.35-2.26-2.19-2.85-6.81-2.85h-8.39v40.91c0,6.55.67,7.47,8.65,8v2.35H455.11v-2.35c7.81-.51,8.49-1.35,8.49-8V419H456c-4.62,0-6,.5-7.39,3a38.12,38.12,0,0,0-2.77,6.81h-2.52c.5-5.13,1-10.42,1.26-15.12h1.93c1.26,2,2.18,1.93,4.54,1.93h33.26c2.35,0,3-.34,4.28-1.93h2c0,3.94.34,10,.76,14.86Z" transform="translate(-12.83 -191.94)" style="fill:#fff"/><path d="M549,418c-5.88.67-6.88,1.6-10.24,7-3.78,6.13-6.89,11.93-11,19.41a8.89,8.89,0,0,0-1.26,4.95v10.33c0,7,.76,7.48,8.57,8.24v2.35H511v-2.35c7.65-1,8.23-1.18,8.23-8.24V448.78c0-1.68-.33-2.44-1.68-4.87-2.94-5.46-5.79-10.76-10.33-18.65-3.27-5.71-4.11-6.72-9.83-7.31V415.6H518V418c-6,.84-5.71,1.93-4.2,4.79,3.53,6.47,7.47,14,11,20.33,3-5.63,7.81-14.79,10.17-19.41,1.93-4.2,1.68-5-5-5.71V415.6h19Z" transform="translate(-12.83 -191.94)" style="fill:#fff"/><path d="M222.91,263.48v23.09h-6s-2.75-12.65-7.7-17.6-22-2.75-22-2.75-9.35,4.4-8.8,8.8a73.36,73.36,0,0,1,0,11.55s9.92,9.89,12.12,9.89,28.59,17.6,28.59,17.6l7.14,15.39V344.3l-11,12-12.93,8.93H189.92l-17-3.3L163,355.84V327.25l7.69,2.2v8.25l7.15,12.1,7.7,6,11.54.42,10.45-5.91,2.75-11-1.65-9.9-3.85-7.14-10.17-5.5-20.07-9.9-7.7-8.25L163,292.07V280.52l2.74-11,11.55-8.79L187.72,258l11.54-2.2,14.85,2.2Z" transform="translate(-12.83 -191.94)" style="fill:#fff"/><path d="M337.82,265.12V291h-6.6l-5-16.5-13.2-9.35H290.53l-10.44,9.35-7.7,11S268,299.76,268,302V324.5L271.84,335l6.05,7.7,7.14,7.7,9.9,5.49H307l12.09-4.94,5.5-6,6.05-7.15.55-8.25,9.35,4.95-4.95,16.5-7.15,8.79-18.69,5.5h-16.5l-18.14-5.5L259.19,346.5l-9.34-17.05V295.91L257,281.07l8.25-9.9,11.55-8.79,15.39-6.6h25.29l11.55,5.5Z" transform="translate(-12.83 -191.94)" style="fill:#fff"/><polygon points="384.36 66.03 351.92 156.21 336.53 163.9 336.53 170.5 375.02 170.5 375.02 163.9 362.92 160.05 370.62 132.01 404.71 132.56 411.85 154.01 411.85 159.5 400.31 163.9 400.31 170.5 442.64 170.5 440.99 163.9 431.1 158.95 398.66 63.84 384.36 66.03" style="fill:#fff"/><polygon points="389.59 83.08 373.37 123.22 401.41 123.22 389.59 83.08" style="fill:#292a66"/><path d="M461,258v8.79l13.2,2.75V350.9L461,355.84v6.6H523.1l23.65-12.64s18.14-14.85,18.14-40.69-27.49-45.63-27.49-45.63L517.6,258Z" transform="translate(-12.83 -191.94)" style="fill:#fff"/><path d="M491.76,268.42v78.63l6.87,6.87H520.9S544,336.05,544,310.21s-16.5-38.49-16.5-38.49l-12.09-5.5Z" transform="translate(-12.83 -191.94)" style="fill:#292a66"/><circle cx="134.75" cy="119.64" r="9.62" style="fill:#fff"/><circle cx="221.62" cy="119.64" r="9.62" style="fill:#fff"/><circle cx="340.93" cy="119.64" r="8.11" style="fill:#fff"/><circle cx="440.44" cy="119.64" r="7.7" style="fill:#fff"/><polygon points="36.33 81.43 36.33 157.3 32.48 161.15 20.94 163.9 20.94 169.4 62.17 169.4 62.17 163.9 50.08 160.6 46.23 156.21 46.23 86.93 110.56 173.25 117.15 171.05 117.15 81.43 121.55 75.38 130.9 75.38 130.9 66.03 92.41 66.03 92.41 73.18 101.76 74.83 105.61 77.58 105.61 144.66 51.73 66.03 20.94 66.03 20.94 74.83 28.63 75.93 34.13 78.68 36.33 81.43" style="fill:#fff"/><path d="M546.75,329.45" transform="translate(-12.83 -191.94)" style="fill:#fff"/></svg>