<svg xmlns="http://www.w3.org/2000/svg" viewBox="0 0 504.87 150"><path d="M192.19,375.58a75,75,0,1,1-3.71-92.53l-64.2,48.63Z" transform="translate(-56.38 -256.68)" style="fill:#d7df23"/><path d="M293.39,300.83h29.87l9.09,7.79,3.25,8.82L338.84,358s-2.59,5.2-4.54,5.2h-5.85L320,350.83l-12.33,12.34L296,350.83l-11.77,12.34-7.06-3.25V356l3.24-46.76Z" transform="translate(-56.38 -256.68)" style="fill:#f59697"/><path d="M369.69,300.83h29.87l9.09,7.79,3.25,8.82L415.14,358s-2.59,5.2-4.54,5.2h-5.85l-8.44-12.34L384,363.17l-11.68-12.34-11.77,12.34-7.07-3.25V356l3.25-46.76Z" transform="translate(-56.38 -256.68)" style="fill:#8dd5e1"/><path d="M442.78,300.83h29.87l9.09,7.79,3.25,8.82L488.23,358s-2.59,5.2-4.54,5.2h-5.85l-8.44-12.34-12.34,12.34-11.68-12.34-11.77,12.34-7.06-3.25V356l3.24-46.76Z" transform="translate(-56.38 -256.68)" style="fill:#f8981d"/><path d="M515.79,300.83h29.87l9.09,7.79,3.25,8.82L561.25,358s-2.6,5.2-4.55,5.2h-5.84l-8.44-12.34-12.34,12.34-11.69-12.34-11.77,12.34-7.06-3.25V356l3.25-46.76Z" transform="translate(-56.38 -256.68)" style="fill:#ed1c24"/><circle cx="237.66" cy="65.26" r="9.74" style="fill:#fff"/><circle cx="231.74" cy="65.26" r="4.58" style="fill:#32499e"/><circle cx="257.91" cy="65.26" r="9.74" style="fill:#fff"/><circle cx="251.99" cy="65.26" r="4.58" style="fill:#32499e"/><circle cx="314.94" cy="65.26" r="9.74" style="fill:#fff"/><circle cx="309.01" cy="65.26" r="4.58" style="fill:#32499e"/><circle cx="335.18" cy="65.26" r="9.74" style="fill:#fff"/><circle cx="329.26" cy="65.26" r="4.58" style="fill:#32499e"/><circle cx="386.69" cy="65.58" r="9.74" style="fill:#fff"/><circle cx="380.77" cy="65.58" r="4.58" style="fill:#32499e"/><circle cx="406.94" cy="65.58" r="9.74" style="fill:#fff"/><circle cx="401.01" cy="65.58" r="4.58" style="fill:#32499e"/><circle cx="462.86" cy="65.58" r="9.74" style="fill:#fff"/><circle cx="456.94" cy="65.58" r="4.58" style="fill:#32499e"/><circle cx="483.1" cy="65.58" r="9.74" style="fill:#fff"/><circle cx="477.18" cy="65.58" r="4.58" style="fill:#32499e"/><circle cx="127.27" cy="70.17" r="8.54" style="fill:#fff"/><circle cx="174.03" cy="70.17" r="8.54" style="fill:#fff"/></svg>